<?xml version="1.0" encoding="utf-8"?>
<!-- Generator: Adobe Illustrator 24.2.1, SVG Export Plug-In . SVG Version: 6.00 Build 0)  -->
<svg version="1.1" id="Layer_1" xmlns="http://www.w3.org/2000/svg" xmlns:xlink="http://www.w3.org/1999/xlink" x="0px" y="0px"
	 viewBox="0 0 391.8 391.8" style="enable-background:new 0 0 391.8 391.8;" xml:space="preserve">
<style type="text/css">
	.st0{fill:#51A8AF;}
	.st1{fill:none;stroke:#51A8AF;stroke-width:26;stroke-miterlimit:10;}
	.st2{fill:none;stroke:#51A8AF;stroke-width:27;stroke-miterlimit:10;}
</style>
<g>
	<path class="st0" d="M111.4,237.4c18.8,0,35.4,12.6,40.5,30.7c1,3.6,1.5,7.4,1.5,11.3c0,23.2-18.8,42-42,42s-42-18.8-42-42
		c0-3.6,0.5-7.2,1.4-10.7C75.6,250.3,92.3,237.4,111.4,237.4 M111.4,210.4c-32.1,0-59,21.9-66.8,51.5c-1.5,5.6-2.2,11.5-2.2,17.5
		c0,38.1,30.9,69,69,69s69-30.9,69-69c0-6.5-0.9-12.7-2.5-18.6C169.7,231.8,143.1,210.4,111.4,210.4L111.4,210.4z"/>
</g>
<g>
	<path class="st0" d="M281.4,237.4c23.2,0,42,18.8,42,42s-18.8,42-42,42s-42-18.8-42-42S258.2,237.4,281.4,237.4 M281.4,210.4
		c-38.1,0-69,30.9-69,69s30.9,69,69,69s69-30.9,69-69S319.5,210.4,281.4,210.4L281.4,210.4z"/>
</g>
<g>
	<path class="st1" d="M166.9,274.9c0-20,16-30,29-30c12,0,30,11,30,30"/>
</g>
<path class="st2" d="M370.4,261.9"/>
<path class="st2" d="M341.4,261.9"/>
<path class="st2" d="M49.9,261.9h-29l45-190c2.8-18.5,18.5-32.5,37-33c18.9-0.5,35.7,13.1,39,32"/>
<path class="st2" d="M342.4,261.9h29l-45-190c-2.8-18.5-18.5-32.5-37-33c-18.9-0.5-35.7,13.1-39,32"/>
</svg>
