<?xml version="1.0" encoding="utf-8"?>
<!-- Generator: Adobe Illustrator 24.2.1, SVG Export Plug-In . SVG Version: 6.00 Build 0)  -->
<svg version="1.1" id="Layer_1" xmlns="http://www.w3.org/2000/svg" xmlns:xlink="http://www.w3.org/1999/xlink" x="0px" y="0px"
	 viewBox="0 0 20.4 20.4" style="enable-background:new 0 0 20.4 20.4;" xml:space="preserve">
<style type="text/css">
	.st0{fill:none;}
	.st1{fill:#75AADB;}
</style>
<g>
	<rect x="-1.8" y="-2.4" class="st0" width="24" height="24"/>
</g>
<g>
	<path class="st1" d="M10.2,0.6c-0.5,0-0.9,0-1.4,0.1c-2.8,0.5-5,2.8-5.5,5.5c-0.5,2.6,0.5,5,2.2,6.6c0.4,0.4,0.7,0.9,0.7,1.5v2.3
		c0,1.1,0.9,2,2,2h0.3c0.4,0.6,1,1,1.7,1s1.4-0.4,1.7-1h0.3c1.1,0,2-0.9,2-2v-2.3c0-0.5,0.2-1.1,0.6-1.5c1.5-1.3,2.4-3.2,2.4-5.2
		C17.2,3.7,14.1,0.6,10.2,0.6z M12.2,16.6h-4v-1h4V16.6z M12.2,14.6h-4v-1h4V14.6z M10.7,9v2.6h-1V9L7.9,7.2l0.7-0.7l1.6,1.6
		l1.6-1.6l0.7,0.7L10.7,9z"/>
</g>
</svg>
